<svg width="39" height="37" viewBox="0 0 39 37" fill="none" xmlns="http://www.w3.org/2000/svg">
<path opacity="0.8" d="M16.0132 20.8025C16.7632 20.6525 17.6632 21.8025 18.3832 22.2225C19.1225 22.6239 19.9584 22.813 20.7985 22.7689C21.6386 22.7248 22.4501 22.4491 23.1432 21.9725C23.7632 21.5125 24.5332 20.2925 25.4132 21.1625C26.2932 22.0325 24.4132 23.6725 23.5632 24.0625C21.1932 25.1725 17.1932 24.7225 15.5632 22.4625C15.1332 21.8425 15.1632 20.9725 15.9832 20.8025H16.0132Z" fill="white"/>
<path opacity="0.8" d="M14.6082 11.9436C18.1482 11.2036 18.6082 16.6936 15.2082 16.7936C12.4182 16.8736 11.8882 12.5036 14.6082 11.9436Z" fill="white"/>
<path opacity="0.8" d="M25.1777 11.9439C25.7789 11.8117 26.4078 11.9107 26.9394 12.2211C27.4709 12.5316 27.8661 13.0308 28.0463 13.6194C28.2266 14.208 28.1786 14.8429 27.9121 15.3977C27.6455 15.9526 27.1798 16.3867 26.6077 16.6139C23.3477 17.7739 22.1577 12.5639 25.1777 11.9439Z" fill="white"/>
<path d="M30.9795 22.7525V14.6225C31.0009 12.8393 30.3136 11.1205 29.0686 9.8436C27.8236 8.56674 26.1227 7.83622 24.3395 7.8125H13.6895C11.9063 7.83885 10.2059 8.56987 8.9599 9.84586C7.71389 11.1219 7.0235 12.8391 7.03954 14.6225V22.7525C7.02898 23.6363 7.19261 24.5136 7.52109 25.3341C7.84958 26.1547 8.33648 26.9025 8.95401 27.5349C9.57153 28.1673 10.3076 28.6718 11.1201 29.0197C11.9326 29.3676 12.8057 29.5521 13.6895 29.5625H24.3395C25.2229 29.5521 26.0955 29.3676 26.9075 29.0195C27.7195 28.6715 28.4549 28.1668 29.0716 27.5343C29.6883 26.9018 30.1743 26.1539 30.5017 25.3334C30.829 24.5128 30.9914 23.6358 30.9795 22.7525Z" fill="#005871"/>
<path d="M2.93 23.6116H2.78C2.04178 23.609 1.3347 23.3139 0.813633 22.7909C0.292568 22.268 -4.74183e-06 21.5599 0 20.8216V15.2016C0.00827471 14.4887 0.284371 13.805 0.773455 13.2863C1.26254 12.7676 1.92883 12.4518 2.64 12.4016C3.03041 10.9985 3.60544 9.65339 4.35 8.40164C4.95758 7.36996 5.67147 6.4047 6.48 5.52164C6.61515 5.34815 6.76946 5.19048 6.94 5.05164L6.99 4.99164C6.99 4.83164 7.13 4.87164 7.22 4.78164C7.30188 4.69972 7.37869 4.6129 7.45 4.52164C8.39238 3.60316 9.45955 2.82214 10.62 2.20164L11.86 1.50164C14.9546 0.146459 18.3698 -0.304279 21.71 0.201637L22.11 0.261637C23.9088 0.568661 25.641 1.1844 27.23 2.08164C28.491 2.7621 29.652 3.61347 30.68 4.61164C31.01 4.93164 31.24 5.17164 31.54 5.49164C32.5208 6.53003 33.3551 7.69748 34.02 8.96164C34.5895 9.96719 35.052 11.0297 35.4 12.1316L35.49 12.4116C36.186 12.4783 36.8326 12.8003 37.3053 13.3154C37.778 13.8306 38.0433 14.5025 38.05 15.2016V20.7916C38.05 21.5299 37.7574 22.238 37.2364 22.7609C36.7153 23.2839 36.0082 23.579 35.27 23.5816H33.4C33.171 23.579 32.9523 23.4862 32.7913 23.3233C32.6303 23.1604 32.54 22.9407 32.54 22.7116V13.0016C32.5395 12.8753 32.5802 12.7522 32.656 12.6511C32.7318 12.5501 32.8386 12.4765 32.96 12.4416C32.82 12.0816 32.68 11.7216 32.53 11.3716C32.38 11.0216 32.2 10.6216 32.01 10.2616C31.4747 9.30774 30.8591 8.40114 30.17 7.55164C29.5293 6.85429 28.8374 6.20581 28.1 5.61164C27.5358 5.16101 26.941 4.75003 26.32 4.38164C24.1262 3.16059 21.661 2.50975 19.1503 2.48879C16.6397 2.46782 14.1639 3.0774 11.95 4.26164C8.82681 6.04326 6.44075 8.87958 5.22 12.2616L5.16 12.4216C5.25756 12.4695 5.34 12.5434 5.39823 12.6352C5.45646 12.7269 5.48822 12.833 5.49 12.9416V22.6916C5.48978 22.8883 5.42217 23.0789 5.29843 23.2318C5.17469 23.3846 5.0023 23.4905 4.81 23.5316" fill="#005871"/>
<path d="M3.84438 22.9648C3.90438 23.2048 4.03437 23.6848 4.06437 23.7848C4.15437 24.0748 4.26438 24.3448 4.37438 24.6248C4.98169 26.2388 5.8761 27.7295 7.01437 29.0248L7.10437 29.1148L7.18437 29.2048L7.24438 29.2648V29.3248L7.30438 29.3848C7.37438 29.4548 7.45438 29.5448 7.53438 29.6148C7.56852 29.6571 7.60526 29.6972 7.64437 29.7348L7.71438 29.8048L7.87438 29.9748C8.54738 30.5637 9.25534 31.1114 9.99437 31.6148C11.2619 32.3936 12.6412 32.9737 14.0844 33.3348C14.3644 33.1148 14.2744 32.8948 14.7144 32.8048C14.8175 32.7185 14.9502 32.6755 15.0844 32.6848C16.4629 32.5948 17.8458 32.5948 19.2244 32.6848C19.4383 32.6946 19.6482 32.7465 19.8421 32.8374C20.036 32.9283 20.2101 33.0566 20.3544 33.2148C20.3663 33.221 20.3769 33.2295 20.3855 33.2398C20.3941 33.2501 20.4005 33.262 20.4044 33.2748C20.6459 33.5411 20.8165 33.8638 20.9004 34.2134C20.9843 34.5629 20.9788 34.928 20.8844 35.2748C20.7656 35.6416 20.5476 35.9684 20.2547 36.219C19.9617 36.4696 19.6051 36.6343 19.2244 36.6948C17.9626 36.7849 16.6961 36.7849 15.4344 36.6948C15.092 36.6586 14.7648 36.5346 14.4844 36.3348C14.1861 36.0207 13.9817 35.6292 13.8944 35.2048C12.2938 34.8188 10.7647 34.1808 9.36438 33.3148C8.32759 32.6769 7.365 31.9256 6.49438 31.0748L6.08438 30.6648L5.91438 30.4948L5.85437 30.4348C5.46774 30.013 5.11025 29.5653 4.78438 29.0948C3.39359 27.3006 2.43542 25.2097 1.98438 22.9848" fill="#005871"/>
<path opacity="0.8" d="M14.6103 22.1127C15.3403 21.9527 16.2303 23.1127 16.9403 23.4927C17.665 23.8878 18.4849 24.0744 19.3092 24.0321C20.1334 23.9897 20.9299 23.72 21.6103 23.2527C22.2203 22.8027 22.9803 21.6027 23.8303 22.4527C24.6803 23.3027 22.8303 24.9127 22.0203 25.3027C19.6903 26.3927 15.7703 25.9527 14.2003 23.7327C13.7803 23.1227 13.8003 22.2727 14.6103 22.1027V22.1127Z" fill="white"/>
<path opacity="0.8" d="M13.2443 13.4021C16.7143 12.6821 17.2443 18.0721 13.8243 18.1621C11.0943 18.2021 10.5643 13.9621 13.2443 13.4021Z" fill="white"/>
<path opacity="0.8" d="M23.6146 13.4145C24.2073 13.276 24.8305 13.3679 25.358 13.6715C25.8855 13.9752 26.2779 14.4679 26.4559 15.05C26.6338 15.6321 26.5839 16.26 26.3163 16.8067C26.0487 17.3534 25.5834 17.778 25.0146 17.9945C21.7846 19.1345 20.6546 14.0245 23.6146 13.4145Z" fill="white"/>
</svg>
