<svg width="152" height="37" viewBox="0 0 152 37" fill="none" xmlns="http://www.w3.org/2000/svg">
<path opacity="0.8" d="M16.0132 20.8025C16.7632 20.6525 17.6632 21.8025 18.3832 22.2225C19.1225 22.6239 19.9584 22.813 20.7985 22.7689C21.6386 22.7248 22.4501 22.4491 23.1432 21.9725C23.7632 21.5125 24.5332 20.2925 25.4132 21.1625C26.2932 22.0325 24.4132 23.6725 23.5632 24.0625C21.1932 25.1725 17.1932 24.7225 15.5632 22.4625C15.1332 21.8425 15.1632 20.9725 15.9832 20.8025H16.0132Z" fill="white"/>
<path opacity="0.8" d="M14.6082 11.9436C18.1482 11.2036 18.6082 16.6936 15.2082 16.7936C12.4182 16.8736 11.8882 12.5036 14.6082 11.9436Z" fill="white"/>
<path opacity="0.8" d="M25.1777 11.9439C25.7789 11.8117 26.4078 11.9107 26.9394 12.2211C27.4709 12.5316 27.8661 13.0308 28.0463 13.6194C28.2266 14.208 28.1786 14.8429 27.9121 15.3977C27.6455 15.9526 27.1798 16.3867 26.6077 16.6139C23.3477 17.7739 22.1577 12.5639 25.1777 11.9439Z" fill="white"/>
<path d="M30.9795 22.7525V14.6225C31.0009 12.8393 30.3136 11.1205 29.0686 9.8436C27.8236 8.56674 26.1227 7.83622 24.3395 7.8125H13.6895C11.9063 7.83885 10.2059 8.56987 8.9599 9.84586C7.71389 11.1219 7.0235 12.8391 7.03954 14.6225V22.7525C7.02898 23.6363 7.19261 24.5136 7.52109 25.3341C7.84958 26.1547 8.33648 26.9025 8.95401 27.5349C9.57153 28.1673 10.3076 28.6718 11.1201 29.0197C11.9326 29.3676 12.8057 29.5521 13.6895 29.5625H24.3395C25.2229 29.5521 26.0955 29.3676 26.9075 29.0195C27.7195 28.6715 28.4549 28.1668 29.0716 27.5343C29.6883 26.9018 30.1743 26.1539 30.5017 25.3334C30.829 24.5128 30.9914 23.6358 30.9795 22.7525Z" fill="#005871"/>
<path d="M2.93 23.6116H2.78C2.04178 23.609 1.3347 23.3139 0.813633 22.7909C0.292568 22.268 -4.74183e-06 21.5599 0 20.8216V15.2016C0.00827471 14.4887 0.284371 13.805 0.773455 13.2863C1.26254 12.7676 1.92883 12.4518 2.64 12.4016C3.03041 10.9985 3.60544 9.65339 4.35 8.40164C4.95758 7.36996 5.67147 6.4047 6.48 5.52164C6.61515 5.34815 6.76946 5.19048 6.94 5.05164L6.99 4.99164C6.99 4.83164 7.13 4.87164 7.22 4.78164C7.30188 4.69972 7.37869 4.6129 7.45 4.52164C8.39238 3.60316 9.45955 2.82214 10.62 2.20164L11.86 1.50164C14.9546 0.146459 18.3698 -0.304279 21.71 0.201637L22.11 0.261637C23.9088 0.568661 25.641 1.1844 27.23 2.08164C28.491 2.7621 29.652 3.61347 30.68 4.61164C31.01 4.93164 31.24 5.17164 31.54 5.49164C32.5208 6.53003 33.3551 7.69748 34.02 8.96164C34.5895 9.96719 35.052 11.0297 35.4 12.1316L35.49 12.4116C36.186 12.4783 36.8326 12.8003 37.3053 13.3154C37.778 13.8306 38.0433 14.5025 38.05 15.2016V20.7916C38.05 21.5299 37.7574 22.238 37.2364 22.7609C36.7153 23.2839 36.0082 23.579 35.27 23.5816H33.4C33.171 23.579 32.9523 23.4862 32.7913 23.3233C32.6303 23.1604 32.54 22.9407 32.54 22.7116V13.0016C32.5395 12.8753 32.5802 12.7522 32.656 12.6511C32.7318 12.5501 32.8386 12.4765 32.96 12.4416C32.82 12.0816 32.68 11.7216 32.53 11.3716C32.38 11.0216 32.2 10.6216 32.01 10.2616C31.4747 9.30774 30.8591 8.40114 30.17 7.55164C29.5293 6.85429 28.8374 6.20581 28.1 5.61164C27.5358 5.16101 26.941 4.75003 26.32 4.38164C24.1262 3.16059 21.661 2.50975 19.1503 2.48879C16.6397 2.46782 14.1639 3.0774 11.95 4.26164C8.82681 6.04326 6.44075 8.87958 5.22 12.2616L5.16 12.4216C5.25756 12.4695 5.34 12.5434 5.39823 12.6352C5.45646 12.7269 5.48822 12.833 5.49 12.9416V22.6916C5.48978 22.8883 5.42217 23.0789 5.29843 23.2318C5.17469 23.3846 5.0023 23.4905 4.81 23.5316" fill="#005871"/>
<path d="M3.84438 22.9648C3.90438 23.2048 4.03437 23.6848 4.06437 23.7848C4.15437 24.0748 4.26438 24.3448 4.37438 24.6248C4.98169 26.2388 5.8761 27.7295 7.01437 29.0248L7.10437 29.1148L7.18437 29.2048L7.24438 29.2648V29.3248L7.30438 29.3848C7.37438 29.4548 7.45438 29.5448 7.53438 29.6148C7.56852 29.6571 7.60526 29.6972 7.64437 29.7348L7.71438 29.8048L7.87438 29.9748C8.54738 30.5637 9.25534 31.1114 9.99437 31.6148C11.2619 32.3936 12.6412 32.9737 14.0844 33.3348C14.3644 33.1148 14.2744 32.8948 14.7144 32.8048C14.8175 32.7185 14.9502 32.6755 15.0844 32.6848C16.4629 32.5948 17.8458 32.5948 19.2244 32.6848C19.4383 32.6946 19.6482 32.7465 19.8421 32.8374C20.036 32.9283 20.2101 33.0566 20.3544 33.2148C20.3663 33.221 20.3769 33.2295 20.3855 33.2398C20.3941 33.2501 20.4005 33.262 20.4044 33.2748C20.6459 33.5411 20.8165 33.8638 20.9004 34.2134C20.9843 34.5629 20.9788 34.928 20.8844 35.2748C20.7656 35.6416 20.5476 35.9684 20.2547 36.219C19.9617 36.4696 19.6051 36.6343 19.2244 36.6948C17.9626 36.7849 16.6961 36.7849 15.4344 36.6948C15.092 36.6586 14.7648 36.5346 14.4844 36.3348C14.1861 36.0207 13.9817 35.6292 13.8944 35.2048C12.2938 34.8188 10.7647 34.1808 9.36438 33.3148C8.32759 32.6769 7.365 31.9256 6.49438 31.0748L6.08438 30.6648L5.91438 30.4948L5.85437 30.4348C5.46774 30.013 5.11025 29.5653 4.78438 29.0948C3.39359 27.3006 2.43542 25.2097 1.98438 22.9848" fill="#005871"/>
<path opacity="0.8" d="M14.6103 22.1127C15.3403 21.9527 16.2303 23.1127 16.9403 23.4927C17.665 23.8878 18.4849 24.0744 19.3092 24.0321C20.1334 23.9897 20.9299 23.72 21.6103 23.2527C22.2203 22.8027 22.9803 21.6027 23.8303 22.4527C24.6803 23.3027 22.8303 24.9127 22.0203 25.3027C19.6903 26.3927 15.7703 25.9527 14.2003 23.7327C13.7803 23.1227 13.8003 22.2727 14.6103 22.1027V22.1127Z" fill="white"/>
<path opacity="0.8" d="M13.2443 13.4021C16.7143 12.6821 17.2443 18.0721 13.8243 18.1621C11.0943 18.2021 10.5643 13.9621 13.2443 13.4021Z" fill="white"/>
<path opacity="0.8" d="M23.6146 13.4145C24.2073 13.276 24.8305 13.3679 25.358 13.6715C25.8855 13.9752 26.2779 14.4679 26.4559 15.05C26.6338 15.6321 26.5839 16.26 26.3163 16.8067C26.0487 17.3534 25.5834 17.778 25.0146 17.9945C21.7846 19.1345 20.6546 14.0245 23.6146 13.4145Z" fill="white"/>
<path d="M54.9228 31.0525C53.0552 31.0875 51.2098 30.6434 49.5628 29.7625C48.0361 28.9383 46.7689 27.7057 45.9028 26.2025C44.9938 24.6227 44.5339 22.8246 44.5728 21.0024C44.5335 19.1731 44.9675 17.3647 45.8328 15.7524C46.6349 14.2714 47.8328 13.0424 49.2928 12.2025C50.8398 11.3248 52.5944 10.8792 54.3728 10.9124C56.0853 10.8739 57.7738 11.3212 59.2428 12.2025C60.5877 13.0288 61.6644 14.2271 62.3428 15.6525C63.0807 17.2354 63.4467 18.9663 63.4128 20.7125C63.4184 20.9248 63.3795 21.1359 63.2986 21.3323C63.2176 21.5286 63.0964 21.7058 62.9428 21.8525C62.7837 22.0055 62.5955 22.1251 62.3894 22.2041C62.1833 22.2831 61.9634 22.3199 61.7428 22.3125H47.1128V19.3625H61.6328L60.1428 20.3625C60.142 19.2396 59.8962 18.1305 59.4228 17.1125C58.9757 16.1875 58.2841 15.4025 57.4228 14.8425C56.4961 14.2695 55.4218 13.981 54.3328 14.0125C53.0904 13.9748 51.8629 14.2904 50.7928 14.9225C49.8234 15.5139 49.0482 16.3759 48.5628 17.4025C48.04 18.5223 47.78 19.7468 47.8028 20.9825C47.7966 22.2397 48.1356 23.4745 48.7828 24.5525C49.3771 25.5869 50.2412 26.4406 51.2828 27.0225C52.4044 27.6442 53.6706 27.9581 54.9528 27.9325C55.7379 27.9265 56.5161 27.7844 57.2528 27.5125C57.9349 27.2744 58.5785 26.9375 59.1628 26.5125C59.501 26.2497 59.9146 26.1025 60.3428 26.0925C60.744 26.0775 61.1363 26.2131 61.4428 26.4725C61.627 26.6186 61.7802 26.8 61.8935 27.006C62.0068 27.2121 62.078 27.4386 62.1028 27.6725C62.1098 27.8945 62.0603 28.1148 61.9589 28.3124C61.8574 28.5101 61.7073 28.6787 61.5228 28.8025C60.5974 29.5033 59.5591 30.041 58.4528 30.3925C57.3202 30.8043 56.1276 31.0273 54.9228 31.0525Z" fill="#2F3B3E" stroke="#2F3B3E" stroke-miterlimit="10"/>
<path d="M72.8534 30.9028C71.8388 30.919 70.8449 30.6145 70.0134 30.0328C69.1735 29.4282 68.5105 28.6099 68.0934 27.6628C67.6172 26.5725 67.3819 25.3923 67.4034 24.2028V4.37278C67.3849 4.12311 67.4181 3.87229 67.5009 3.63601C67.5837 3.39974 67.7143 3.18309 67.8847 2.99962C68.055 2.81614 68.2614 2.66979 68.4909 2.56971C68.7204 2.46962 68.9681 2.41797 69.2184 2.41797C69.4688 2.41797 69.7165 2.46962 69.946 2.56971C70.1755 2.66979 70.3818 2.81614 70.5522 2.99962C70.7225 3.18309 70.8532 3.39974 70.936 3.63601C71.0188 3.87229 71.052 4.12311 71.0334 4.37278V24.2028C71.0026 24.9718 71.1787 25.735 71.5434 26.4128C71.6589 26.6655 71.8428 26.8809 72.0743 27.0347C72.3058 27.1884 72.5757 27.2744 72.8534 27.2828H73.7834C74.0057 27.2743 74.2271 27.3157 74.4313 27.404C74.6355 27.4922 74.8173 27.6251 74.9634 27.7928C75.2748 28.1568 75.4389 28.624 75.4234 29.1028C75.425 29.361 75.3629 29.6157 75.2426 29.8442C75.1222 30.0727 74.9473 30.268 74.7334 30.4128C74.2096 30.7672 73.5852 30.9426 72.9534 30.9128L72.8534 30.9028Z" fill="#2F3B3E" stroke="#2F3B3E" stroke-miterlimit="10"/>
<path d="M83.7801 30.9036C82.7686 30.9197 81.7779 30.6152 80.9501 30.0336C80.1101 29.429 79.4472 28.6107 79.0301 27.6636C78.5367 26.5771 78.2843 25.3968 78.2901 24.2036V4.37357C78.2818 4.13362 78.3228 3.89451 78.4108 3.67112C78.4988 3.44773 78.6319 3.24484 78.8016 3.07507C78.9714 2.90529 79.1743 2.77227 79.3977 2.68428C79.6211 2.59628 79.8602 2.55519 80.1001 2.56357C80.3417 2.55519 80.5824 2.59609 80.8076 2.68377C81.0328 2.77145 81.2378 2.90408 81.4101 3.07357C81.5793 3.244 81.7119 3.44725 81.7996 3.67082C81.8873 3.89439 81.9283 4.13355 81.9201 4.37357V24.2036C81.8893 24.9726 82.0654 25.7358 82.4301 26.4136C82.5439 26.6655 82.726 26.8806 82.9558 27.0344C83.1856 27.1881 83.4538 27.2745 83.7301 27.2836H84.6401C84.8622 27.2765 85.0831 27.3186 85.2871 27.4067C85.4911 27.4949 85.6731 27.627 85.8201 27.7936C86.1288 28.1586 86.2893 28.626 86.2701 29.1036C86.2717 29.3618 86.2096 29.6165 86.0892 29.845C85.9689 30.0735 85.794 30.2688 85.5801 30.4136C85.0569 30.7693 84.432 30.9448 83.8001 30.9136L83.7801 30.9036Z" fill="#2F3B3E" stroke="#2F3B3E" stroke-miterlimit="10"/>
<path d="M97.7835 31.0496C95.9698 31.0864 94.1788 30.6413 92.5935 29.7596C91.1208 28.9151 89.907 27.6841 89.0835 26.1996C88.2037 24.6094 87.7555 22.8167 87.7835 20.9996C87.7457 19.168 88.187 17.3583 89.0635 15.7496C89.9013 14.2615 91.1331 13.0332 92.6235 12.1996C94.2162 11.3504 95.9935 10.9062 97.7985 10.9062C99.6035 10.9062 101.381 11.3504 102.973 12.1996C104.457 13.0361 105.681 14.2642 106.513 15.7496C107.387 17.3592 107.824 19.1689 107.783 20.9996C107.821 22.814 107.383 24.6066 106.513 26.1996C105.695 27.691 104.476 28.9241 102.993 29.7596C101.402 30.6447 99.6039 31.09 97.7835 31.0496ZM97.7835 27.7796C98.9557 27.8025 100.111 27.5014 101.123 26.9096C102.086 26.3375 102.872 25.5104 103.393 24.5196C103.954 23.4321 104.235 22.2227 104.213 20.9996C104.234 19.7702 103.952 18.5547 103.393 17.4596C102.879 16.4556 102.093 15.6168 101.123 15.0396C100.103 14.4694 98.9528 14.1701 97.7835 14.1701C96.6142 14.1701 95.4644 14.4694 94.4435 15.0396C93.4767 15.6228 92.6881 16.4598 92.1635 17.4596C91.5888 18.5496 91.2998 19.7676 91.3235 20.9996C91.2988 22.2253 91.588 23.4371 92.1635 24.5196C92.695 25.5066 93.4826 26.3322 94.4435 26.9096C95.4555 27.5014 96.6113 27.8025 97.7835 27.7796Z" fill="#2F3B3E" stroke="#2F3B3E" stroke-miterlimit="10"/>
<path d="M114.36 31.4801C113.699 31.4723 113.068 31.2064 112.6 30.7392C112.133 30.2721 111.867 29.6407 111.86 28.9801C111.855 28.6456 111.918 28.3138 112.046 28.0044C112.173 27.6951 112.361 27.4147 112.6 27.1801C112.831 26.946 113.107 26.7603 113.411 26.6335C113.714 26.5067 114.04 26.4414 114.37 26.4414C114.699 26.4414 115.025 26.5067 115.329 26.6335C115.632 26.7603 115.908 26.946 116.14 27.1801C116.374 27.4169 116.56 27.6979 116.685 28.0069C116.81 28.3159 116.873 28.6467 116.87 28.9801C116.872 29.3074 116.809 29.6319 116.683 29.9343C116.558 30.2366 116.373 30.5107 116.14 30.7401C115.911 30.9812 115.635 31.1717 115.328 31.2992C115.022 31.4267 114.692 31.4883 114.36 31.4801Z" fill="#2F3B3E" stroke="#2F3B3E" stroke-miterlimit="10"/>
<path d="M130.221 31.0511C128.542 31.0765 126.892 30.6145 125.471 29.7211C124.065 28.8405 122.919 27.6014 122.151 26.1311C121.322 24.55 120.903 22.7862 120.931 21.0011C120.903 19.1929 121.362 17.4105 122.261 15.8411C123.137 14.3164 124.4 13.0497 125.923 12.1688C127.445 11.288 129.172 10.8242 130.931 10.8242C132.69 10.8242 134.417 11.288 135.939 12.1688C137.462 13.0497 138.725 14.3164 139.601 15.8411C140.5 17.4105 140.959 19.1929 140.931 21.0011H139.511C139.543 22.7854 139.127 24.5491 138.301 26.1311C137.53 27.5992 136.384 28.8376 134.981 29.7211C133.556 30.6148 131.903 31.0767 130.221 31.0511ZM130.951 27.7811C132.113 27.8028 133.257 27.4942 134.251 26.8911C135.219 26.3018 136.01 25.4624 136.541 24.4611C137.102 23.3951 137.387 22.2057 137.371 21.0011C137.391 19.7803 137.105 18.5739 136.541 17.4911C136.004 16.4942 135.214 15.6561 134.251 15.0611C133.251 14.4778 132.114 14.1704 130.956 14.1704C129.798 14.1704 128.661 14.4778 127.661 15.0611C126.689 15.6546 125.889 16.4924 125.341 17.4911C124.761 18.5686 124.468 19.7775 124.491 21.0011C124.471 22.2085 124.764 23.4004 125.341 24.4611C125.883 25.4639 126.685 26.303 127.661 26.8911C128.653 27.4903 129.793 27.7987 130.951 27.7811ZM139.081 30.9411C138.835 30.9509 138.589 30.9088 138.36 30.8175C138.131 30.7262 137.923 30.5877 137.751 30.4111C137.579 30.2382 137.444 30.0318 137.355 29.8049C137.265 29.5779 137.223 29.335 137.231 29.0911V23.5411L137.921 19.6911L140.921 21.0011V29.0911C140.928 29.3357 140.884 29.579 140.793 29.806C140.702 30.0331 140.565 30.239 140.391 30.4111C140.221 30.5852 140.017 30.7222 139.792 30.8134C139.566 30.9046 139.324 30.9481 139.081 30.9411Z" fill="#2F3B3E" stroke="#2F3B3E" stroke-miterlimit="10"/>
<path d="M148.66 7.82142C148.344 7.82707 148.031 7.76684 147.74 7.64459C147.449 7.52234 147.187 7.34075 146.97 7.11142C146.744 6.89241 146.565 6.63045 146.443 6.34103C146.321 6.05161 146.258 5.74061 146.258 5.42642C146.258 5.11223 146.321 4.80123 146.443 4.51181C146.565 4.22239 146.744 3.96043 146.97 3.74142C147.188 3.51354 147.45 3.33292 147.741 3.21078C148.032 3.08864 148.344 3.02759 148.66 3.03142C148.975 3.02993 149.287 3.09205 149.577 3.21405C149.868 3.33605 150.13 3.51542 150.35 3.74142C150.571 3.9625 150.747 4.22513 150.867 4.51427C150.987 4.80341 151.049 5.11338 151.049 5.42642C151.049 5.73946 150.987 6.04943 150.867 6.33857C150.747 6.62771 150.571 6.89034 150.35 7.11142C150.132 7.3393 149.869 7.51992 149.579 7.64206C149.288 7.7642 148.975 7.82525 148.66 7.82142ZM148.66 30.9014C148.412 30.9156 148.163 30.8777 147.931 30.7901C147.698 30.7026 147.487 30.5673 147.31 30.393C147.133 30.2188 146.994 30.0094 146.903 29.7783C146.811 29.5473 146.77 29.2997 146.78 29.0514V12.9014C146.769 12.6543 146.81 12.4076 146.899 12.1769C146.989 11.9463 147.125 11.7367 147.3 11.5614C147.476 11.3923 147.685 11.2601 147.913 11.1725C148.142 11.0849 148.385 11.0438 148.63 11.0514C148.876 11.0369 149.124 11.0747 149.355 11.1626C149.586 11.2504 149.795 11.3862 149.97 11.5609C150.145 11.7357 150.281 11.9455 150.369 12.1766C150.456 12.4076 150.494 12.6547 150.48 12.9014V29.0514C150.488 29.2959 150.447 29.5396 150.359 29.7681C150.272 29.9965 150.139 30.2051 149.97 30.3814C149.798 30.5522 149.593 30.6864 149.368 30.7758C149.143 30.8652 148.902 30.9079 148.66 30.9014Z" fill="#2F3B3E" stroke="#2F3B3E" stroke-miterlimit="10"/>
</svg>
